<?xml version="1.0" encoding="UTF-8" standalone="no"?>
<svg xmlns="http://www.w3.org/2000/svg"
  width="20px"
  height="20px">
  <path
    d="M359,0.74C352.79,3.98 344.27,13.73 339,19 339,19 303,55 303,55 296.37,61.63 287.01,67.73 288.18,78 288.18,78 293.12,97 293.12,97 293.12,97 304.85,140 304.85,140 306.14,144.75 311.24,159.05 309.22,163 307.89,165.6 296.82,176.18 294,179 294,179 271,202 271,202 268.53,204.47 261.43,211.86 259,213.4 256.09,215.24 251.52,215.24 248,216.02 242.8,217.16 239.13,218.92 235,222.33 235,222.33 193,264 193,264 193,264 110,347 110,347 110,347 80.64,377 80.64,377 78.65,379.78 77.01,383.72 75.93,387 74.68,391.63 74.56,399.32 75.93,404 78.64,415.25 83.74,413.96 75.93,422 75.93,422 9,489 9,489 6.34,491.66 2.06,495.52 0.74,499 -2.12,506.51 2.96,513.12 11,511.77 17.18,510.73 30.07,495.93 35,491 35,491 74,452 74,452 74,452 93,433.29 93,433.29 97.61,430.04 103.94,435.4 109,436.48 117.83,438.37 128.86,436.2 136,430.61 136,430.61 160,407 160,407 160,407 204,363 204,363 204,363 261,306 261,306 261,306 289.79,277 289.79,277 293.05,273.16 295.6,267.96 296.53,263 297.22,259.36 296.52,256.29 298.6,253 298.6,253 320,231 320,231 320,231 348,203.41 348,203.41 349.44,202.44 350.25,202.08 352,202.06 352,202.06 372,207.15 372,207.15 372,207.15 415,218.88 415,218.88 415,218.88 435,223.9 435,223.9 444.51,224.54 450.89,215.11 457,209 457,209 493,173 493,173 496.37,169.63 508.36,158.08 510.26,155 514.24,148.57 510.34,141.77 507.14,136 507.14,136 484.86,96 484.86,96 483,92.67 474.82,78.58 474.37,76 473.7,72.24 476.23,70.9 475.99,61 475.76,51.76 471.27,43.5 463,39.04 457.82,36.25 451.79,35.55 446,36.17 441.38,36.67 438.48,38.81 434,36.99 434,36.99 383,8.77 383,8.77 375.33,4.6 368.05,-1.42 359,0.74ZM421,52C421,52 398,76 398,76 398,76 357,117 357,117 357,117 339,135 339,135 339,135 326,146 326,146 326,146 313.58,99 313.58,99 312.65,95.68 308.36,81.36 308.61,79 308.99,75.44 312.6,72.41 315,70 315,70 330,55 330,55 330,55 353,32 353,32 355.3,29.7 361.18,23.21 364,22.41 367.49,21.42 376.63,27.46 380,29.3 380,29.3 421,52 421,52ZM289,234C289,234 278,224 278,224 278,224 320,181 320,181 320,181 402,99 402,99 402,99 433,68 433,68 436.36,64.64 443.59,56.41 448,55.47 454.05,54.19 459.92,61.01 454.69,68 454.69,68 421,102 421,102 421,102 289,234 289,234ZM460,91C460,91 480.42,128 480.42,128 482.14,131.03 489.48,143.51 489.72,146 490.17,150.54 481.15,157.85 478,161 478,161 448,191 448,191 445.12,193.88 437.53,202.34 434,203.22 431.09,203.94 418.64,199.84 415,198.88 415,198.88 366,186 366,186 366,186 377,173 377,173 377,173 395,155 395,155 395,155 436,114 436,114 436,114 460,91 460,91ZM250,236.43C262.71,234.77 272.98,241.09 275.4,254 275.68,256.52 276.22,259.49 275.4,262 274.34,266.69 266.57,273.43 263,277 260.99,279.01 255.47,285.05 253,285.66 250.17,286.37 247.84,283.73 246,281.98 246,281.98 231,267 231,267 229.37,265.33 226.2,262.49 226.2,260 226.2,257.51 229.37,254.67 231,253 235.95,247.95 243.67,238.91 250,236.43ZM211,274C211,274 238,301 238,301 234.57,305.79 229.32,310.87 225,314.98 223.49,316.42 221.24,318.8 219,318.8 216.51,318.8 213.67,315.63 212,314 212,314 197.02,299 197.02,299 195.27,297.16 192.63,294.83 193.34,292 193.82,290.06 196.6,287.43 198,286 202.13,281.79 206.2,277.44 211,274ZM205,334C201.56,338.8 197.21,342.87 193,347 191.57,348.4 188.94,351.18 187,351.66 184.17,352.37 181.84,349.73 180,347.98 180,347.98 165,333 165,333 163.37,331.33 160.2,328.49 160.2,326 160.2,324.05 161.85,322.35 163.06,321 165.7,318.05 175.1,307.36 179,308.34 181.67,309 189.63,317.63 192,320 192,320 205,334 205,334ZM145,341.2C150.79,342.99 160.32,354.29 165,359 166.58,360.59 170.13,363.88 170.66,366 171.62,369.8 162.75,377.48 160,379.94 158.65,381.15 156.95,382.8 155,382.8 151.78,382.8 144.45,374.45 142,372 139.5,369.5 130.03,360.76 129.34,358 128.72,355.52 130.55,353.69 132.06,352 135.5,348.16 140.1,342.72 145,341.2ZM114,371C114,371 141,398 141,398 136.88,403.76 125.92,415.79 119,417.3 108.36,419.62 92.73,404.45 94.34,394 95.47,386.67 108.06,375.25 114,371Z"
    stroke-width="1"
    fill="blue"
  />
</svg>
